<?xml version="1.0" encoding="UTF-8"?>
<svg id="Ebene_1" data-name="Ebene 1" xmlns="http://www.w3.org/2000/svg" viewBox="0 0 290.85 353.05">
  <defs>
    <style>
      .cls-1 {
        fill: #fff;
      }

      .cls-2 {
        fill: #f46c39;
      }

      .cls-3 {
        isolation: isolate;
      }
    </style>
  </defs>
  <g class="cls-3">
    <polygon class="cls-1" points="275.26 6.48 255.68 23.03 177.18 19.77 196.75 3.23 275.26 6.48"/>
    <polygon class="cls-2" points="30.32 329.78 10.74 346.32 -8.49 12.09 11.09 -4.45 30.32 329.78"/>
    <polygon class="cls-1" points="76.21 -1.76 56.63 14.78 -8.49 12.09 11.09 -4.45 76.21 -1.76"/>
    <polygon class="cls-1" points="149.29 166.55 129.71 183.09 255.68 23.03 275.26 6.48 149.29 166.55"/>
    <polygon class="cls-1" points="298.25 340.88 278.68 357.42 129.71 183.09 149.29 166.55 298.25 340.88"/>
    <polygon class="cls-2" points="84.9 149.43 65.33 165.97 177.18 19.77 196.75 3.23 84.9 149.43"/>
    <polygon class="cls-1" points="85.69 146.75 66.11 163.3 176.67 18.79 196.24 2.25 85.69 146.75"/>
    <polygon class="cls-1" points="84.9 149.43 65.32 165.97 56.63 14.78 76.21 -1.76 84.9 149.43"/>
    <polygon class="cls-2" points="298.25 340.88 278.68 357.42 196.4 354.01 215.97 337.47 298.25 340.88"/>
    <polygon class="cls-2" points="215.97 337.47 196.4 354.01 67.22 198.8 86.79 182.26 215.97 337.47"/>
    <polygon class="cls-1" points="215.58 338.41 196.01 354.95 68.31 201.54 87.89 185 215.58 338.41"/>
    <polygon class="cls-1" points="300.33 341.92 280.76 358.46 196.01 354.95 215.58 338.41 300.33 341.92"/>
    <polygon class="cls-1" points="95.43 332.48 75.86 349.02 67.22 198.8 86.79 182.26 95.43 332.48"/>
    <polygon class="cls-2" points="95.43 332.48 75.86 349.02 10.74 346.32 30.32 329.78 95.43 332.48"/>
    <polygon class="cls-2" points="275.26 6.49 149.53 166.25 298.25 340.88 215.97 337.47 86.79 182.26 95.43 332.48 30.32 329.78 11.09 -4.45 76.21 -1.76 84.9 149.43 196.75 3.23 275.26 6.49"/>
    <path class="cls-1" d="M150.52,166.61l149.81,175.32-84.75-3.51-127.7-153.41,8.54,148.48-67-2.77L10.09-5.46l67,2.78,8.6,149.43L196.24,2.25l80.97,3.36-126.7,161ZM86.79,182.26l129.18,155.21,82.28,3.41-148.96-174.33L275.26,6.48l-78.51-3.25-111.85,146.2L76.21-1.76,11.09-4.45l19.23,334.24,65.11,2.7-8.64-150.22"/>
    <polygon class="cls-1" points="96.43 333.48 76.85 350.02 9.86 347.25 29.43 330.71 96.43 333.48"/>
    <polygon class="cls-1" points="29.43 330.71 9.86 347.25 -9.48 11.09 10.09 -5.46 29.43 330.71"/>
  </g>
</svg>